PathFileType	4	(X/Y/Z)	 marche_02.trc
DataRate	CameraRate	NumFrames	NumMarkers	Units	OrigDataRate	OrigDataStartFrame	OrigNumFrames
200	200	9	44	m	200	1	396
Frame#	Time	RCAL			RMT1			RIMAL			REMAL			RMT5			LCAL			LMT1			LIMAL			LEMAL			LMT5			RTTA			LTTA			RICE			RECE			RGT			RAT			LICE			LECE			LGT			LASIS			RASIS			RPSIS			LPSIS			OMP			L4			XYP			C7			STE			FRO			RTEMP			LTEMP			RACR			RLEC			RMEC			LACR			LLEC			LMEC			RLS			RRS			LLS			LRS			RFIN			LFIN			C_43			
		X1	Y1	Z1	X2	Y2	Z2	X3	Y3	Z3	X4	Y4	Z4	X5	Y5	Z5	X6	Y6	Z6	X7	Y7	Z7	X8	Y8	Z8	X9	Y9	Z9	X10	Y10	Z10	X11	Y11	Z11	X12	Y12	Z12	X13	Y13	Z13	X14	Y14	Z14	X15	Y15	Z15	X16	Y16	Z16	X17	Y17	Z17	X18	Y18	Z18	X19	Y19	Z19	X20	Y20	Z20	X21	Y21	Z21	X22	Y22	Z22	X23	Y23	Z23	X24	Y24	Z24	X25	Y25	Z25	X26	Y26	Z26	X27	Y27	Z27	X28	Y28	Z28	X29	Y29	Z29	X30	Y30	Z30	X31	Y31	Z31	X32	Y32	Z32	X33	Y33	Z33	X34	Y34	Z34	X35	Y35	Z35	X36	Y36	Z36	X37	Y37	Z37	X38	Y38	Z38	X39	Y39	Z39	X40	Y40	Z40	X41	Y41	Z41	X42	Y42	Z42	X43	Y43	Z43	X44	Y44	Z44	
1	0.0050	-0.861854	0.237693	0.383603	-0.736811	0.074862	0.421842	-0.768839	0.207453	0.369706	-0.822451	0.219880	0.460364	-0.778727	0.107762	0.488987	-0.673835	0.047110	0.290198	-0.463379	0.051064	0.306838	-0.603464	0.096050	0.339062	-0.613925	0.072397	0.236042	-0.496118	0.038512	0.231011	-0.520768	0.367940	0.474533	-0.501740	0.369077	0.274128	-0.496966	0.457318	0.389533	-0.512971	0.474767	0.524924	-0.634755	0.822994	0.533171	-0.447674	0.681429	0.501230	-0.572156	0.456224	0.340121	-0.536107	0.451305	0.200035	-0.586291	0.851600	0.161688	-0.517083	0.946814	0.226629	-0.537335	0.933086	0.478004	-0.732964	0.938639	0.376262	-0.722461	0.941788	0.291189	-0.461029	0.995343	0.367491	-0.742144	1.196690	0.333738	-0.497194	1.192164	0.356550	-0.712625	1.381600	0.334410	-0.539094	1.355452	0.350035	-0.449292	1.594585	0.346298	-0.503208	1.574664	0.423316	-0.503932	1.561343	0.260099	-0.636499	1.397739	0.523184	-0.709174	1.084423	0.619273	-0.712827	1.058139	0.525258	-0.600621	1.384383	0.164951	-0.642129	1.067413	0.051555	-0.679693	1.043502	0.142513	-0.617712	0.837553	0.645726	-0.540586	0.853329	0.593453	-0.558141	0.818619	0.046135	-0.527131	0.823319	0.122061	-0.544232	0.760446	0.656558	-0.513179	0.742846	0.075293	0.000000	0.000000	0.000000	
2	0.0100	-0.847079	0.232631	0.382752	-0.716468	0.072716	0.421005	-0.751126	0.204397	0.368748	-0.806648	0.215398	0.459305	-0.758662	0.103545	0.487426	-0.673776	0.047331	0.290178	-0.463424	0.051011	0.306750	-0.603251	0.096217	0.338948	-0.613925	0.072397	0.236042	-0.496130	0.038354	0.230898	-0.507755	0.369329	0.474525	-0.505289	0.369011	0.273650	0.000000	0.000000	0.000000	-0.501889	0.475947	0.524862	-0.627472	0.823763	0.533529	-0.438626	0.683630	0.500567	-0.571185	0.456968	0.339807	-0.534658	0.451081	0.199491	-0.582064	0.851696	0.161337	-0.509362	0.947418	0.225762	-0.530642	0.933546	0.477390	-0.726624	0.938348	0.376374	0.000000	0.000000	0.000000	-0.454987	0.995591	0.366997	-0.735858	1.197044	0.333090	-0.491887	1.192210	0.356265	-0.706297	1.382196	0.333971	-0.532463	1.355869	0.350362	-0.442686	1.594941	0.346526	-0.496983	1.575060	0.423301	-0.497726	1.561468	0.260717	-0.630069	1.398057	0.523006	-0.704388	1.085001	0.618570	-0.711543	1.058594	0.524897	-0.593918	1.385081	0.164856	-0.631787	1.068460	0.050257	-0.671687	1.044243	0.141950	-0.616302	0.837022	0.645483	-0.539085	0.851433	0.593002	-0.543942	0.820410	0.045707	-0.514561	0.825182	0.121023	-0.544199	0.758329	0.655709	-0.497339	0.745987	0.074280	0.000000	0.000000	0.000000	
3	0.0150	-0.832160	0.227612	0.381738	-0.695816	0.071276	0.420275	-0.733820	0.201325	0.368039	-0.791150	0.210994	0.457906	-0.739092	0.100940	0.485487	-0.673677	0.047580	0.290228	-0.463404	0.051022	0.306646	-0.603209	0.096353	0.338608	-0.613929	0.072396	0.236033	-0.496166	0.038261	0.230820	-0.494837	0.370900	0.474336	-0.506224	0.368424	0.273544	-0.466386	0.461270	0.391160	-0.491055	0.477333	0.524760	-0.619888	0.824568	0.533691	-0.430132	0.685648	0.500026	-0.570203	0.457353	0.339465	-0.533547	0.450829	0.199155	-0.577965	0.851727	0.160801	-0.501625	0.948118	0.224922	-0.523912	0.934158	0.476736	-0.720599	0.938891	0.376606	-0.713144	0.942911	0.291672	-0.448687	0.996089	0.366686	-0.729594	1.197231	0.332575	-0.486151	1.192208	0.355816	-0.699682	1.382569	0.333690	-0.525945	1.356141	0.350480	-0.436514	1.595517	0.346790	-0.490950	1.575417	0.423306	-0.491325	1.561902	0.260884	-0.623933	1.398364	0.522761	-0.699676	1.085375	0.617826	-0.708745	1.059031	0.524611	-0.587395	1.385789	0.164782	-0.621541	1.068935	0.049223	-0.662931	1.044133	0.141094	-0.614849	0.836582	0.645292	-0.537495	0.849495	0.592541	-0.529928	0.822431	0.045188	-0.501545	0.827285	0.120114	-0.544216	0.756446	0.654802	-0.481503	0.749608	0.073505	0.000000	0.000000	0.000000	
4	0.0200	-0.816626	0.222093	0.380520	-0.675023	0.070040	0.419791	-0.716760	0.197847	0.367837	-0.774730	0.206438	0.457479	-0.719635	0.098997	0.483866	-0.673618	0.047862	0.290250	-0.463277	0.051037	0.306511	-0.603522	0.096374	0.338089	-0.613859	0.072440	0.235990	-0.496131	0.038230	0.230838	-0.482356	0.372408	0.473864	-0.504710	0.367884	0.273079	-0.452301	0.466784	0.388609	-0.480211	0.479087	0.524933	-0.612220	0.825193	0.534136	-0.421547	0.687994	0.499467	-0.568882	0.457380	0.339120	-0.532473	0.450650	0.198837	-0.574847	0.851559	0.160058	-0.494532	0.948741	0.224191	-0.517276	0.934821	0.475800	-0.714384	0.938979	0.376967	-0.707438	0.943039	0.292201	-0.442530	0.996718	0.365796	-0.723323	1.197606	0.332258	-0.480360	1.192228	0.355392	-0.693205	1.382778	0.333273	-0.519673	1.356401	0.350294	-0.430124	1.595865	0.346794	-0.484377	1.575620	0.423266	-0.484878	1.562195	0.260699	-0.617647	1.398466	0.522727	-0.694851	1.085437	0.617125	-0.704451	1.059423	0.523995	-0.580614	1.386485	0.164684	-0.611506	1.069479	0.048586	-0.653665	1.043276	0.140141	-0.613357	0.836153	0.644902	-0.535680	0.847792	0.591818	-0.515963	0.824638	0.044681	-0.486499	0.830538	0.120009	-0.544259	0.754773	0.654147	-0.465592	0.752856	0.072552	0.000000	0.000000	0.000000	
5	0.0250	-0.800295	0.214482	0.379286	-0.654026	0.069198	0.419398	-0.700018	0.193387	0.368204	-0.758701	0.201174	0.456468	-0.700158	0.096617	0.482816	0.000000	0.000000	0.000000	-0.463223	0.051041	0.306399	-0.604335	0.095598	0.337782	-0.614597	0.072949	0.234997	-0.496155	0.038230	0.230769	-0.469969	0.373810	0.473952	-0.501765	0.367787	0.271904	-0.437640	0.471212	0.387091	-0.469417	0.480714	0.524882	-0.604573	0.825832	0.534721	-0.413176	0.690291	0.499013	-0.567018	0.457430	0.338868	-0.530945	0.450295	0.198609	-0.572012	0.851524	0.159727	-0.487609	0.949607	0.223334	-0.510297	0.935035	0.474795	-0.708404	0.939028	0.377115	-0.701568	0.943436	0.292348	-0.436658	0.997200	0.364848	-0.717001	1.198125	0.331935	-0.474345	1.192230	0.355348	-0.686814	1.383090	0.333011	-0.513265	1.356513	0.350082	-0.423715	1.596089	0.346899	-0.478214	1.575711	0.423379	-0.478401	1.562333	0.260456	-0.611123	1.398547	0.522714	-0.689889	1.086006	0.616425	-0.700019	1.058973	0.523027	-0.573910	1.387103	0.164792	-0.601495	1.070116	0.047802	-0.644247	1.042921	0.139551	-0.611826	0.835743	0.644653	-0.534203	0.846149	0.591202	-0.501839	0.826981	0.044200	-0.471105	0.834601	0.120688	-0.544110	0.752941	0.653493	-0.449684	0.756214	0.072113	0.000000	0.000000	0.000000	
6	0.0300	-0.783339	0.205390	0.377260	-0.632971	0.068005	0.419023	-0.683102	0.189097	0.367382	-0.742258	0.195513	0.455081	-0.680637	0.093808	0.482788	-0.673623	0.047878	0.290022	-0.463200	0.051083	0.306314	-0.603742	0.095398	0.338496	-0.614382	0.073578	0.234728	-0.496187	0.038229	0.230746	-0.457521	0.375463	0.473941	-0.499187	0.367714	0.270440	-0.422418	0.474674	0.386468	-0.458910	0.482144	0.524858	-0.595599	0.825335	0.534909	-0.404796	0.692463	0.498711	-0.563946	0.457056	0.338421	-0.529035	0.449941	0.198142	-0.569232	0.851360	0.158959	-0.480979	0.950460	0.222686	-0.503840	0.935676	0.473821	-0.702345	0.938818	0.377511	-0.695697	0.943671	0.292525	-0.430658	0.997550	0.363815	-0.710766	1.198494	0.331661	-0.469174	1.191975	0.355128	-0.680321	1.383354	0.332720	-0.506926	1.356610	0.350043	-0.417507	1.596400	0.347221	-0.472042	1.575964	0.423603	-0.472053	1.562695	0.260179	-0.604883	1.398579	0.522765	-0.685168	1.086624	0.615760	-0.695157	1.058602	0.522031	-0.567374	1.387555	0.164925	-0.591453	1.070712	0.046787	-0.635038	1.042120	0.139177	-0.610382	0.835285	0.644414	-0.534376	0.845717	0.589107	-0.487749	0.829268	0.043843	-0.456413	0.837939	0.120835	-0.543871	0.751040	0.652774	-0.433963	0.759816	0.071529	0.000000	0.000000	0.000000	
7	0.0350	-0.766147	0.197326	0.375498	-0.611993	0.066905	0.418610	-0.666173	0.185324	0.366104	-0.725685	0.189654	0.453548	-0.660853	0.090524	0.482278	-0.672748	0.048568	0.290433	-0.463122	0.051088	0.306173	-0.602204	0.096053	0.339380	-0.612703	0.073925	0.235722	-0.496193	0.038239	0.230706	-0.445585	0.376988	0.473657	-0.497226	0.367688	0.269187	-0.407021	0.477393	0.386373	-0.448486	0.483439	0.524724	-0.586857	0.825202	0.535473	-0.396260	0.694489	0.498520	-0.560474	0.456604	0.337999	-0.527089	0.449562	0.197539	-0.564315	0.851494	0.158644	-0.473855	0.951358	0.221967	-0.496517	0.935720	0.473586	-0.696175	0.938470	0.377943	-0.689947	0.943612	0.292840	-0.424639	0.998035	0.362924	-0.704599	1.198727	0.331355	-0.463764	1.191907	0.354797	-0.673954	1.383682	0.332451	-0.500609	1.356594	0.350012	-0.410964	1.596678	0.347401	-0.465606	1.576041	0.423766	-0.465713	1.563022	0.260274	-0.598585	1.398430	0.522430	-0.680425	1.086882	0.615202	-0.690270	1.058722	0.521194	-0.560521	1.387874	0.165061	-0.581504	1.071273	0.046046	-0.626197	1.041250	0.138955	-0.608833	0.834669	0.643982	-0.532628	0.844880	0.587461	-0.473706	0.831682	0.043563	-0.442366	0.840780	0.120197	-0.543670	0.749526	0.652154	-0.418308	0.763401	0.070549	0.000000	0.000000	0.000000	
8	0.0400	-0.750272	0.190315	0.373996	-0.590788	0.065556	0.418278	-0.648820	0.181880	0.364998	-0.709060	0.184270	0.452240	-0.640805	0.087191	0.481813	-0.673210	0.048843	0.290924	-0.463068	0.051067	0.306093	-0.601840	0.096950	0.338906	-0.610861	0.073777	0.236938	-0.496182	0.038178	0.230700	-0.433571	0.378352	0.473435	-0.495648	0.367496	0.268439	-0.391774	0.479836	0.386629	-0.438255	0.484629	0.524730	-0.579426	0.826075	0.536344	-0.388295	0.696270	0.497789	-0.557354	0.456200	0.337784	-0.525391	0.449220	0.197152	-0.558903	0.851724	0.158724	-0.475762	0.948970	0.222313	-0.490143	0.936234	0.472850	-0.690308	0.937910	0.378279	-0.684281	0.943518	0.293201	-0.418762	0.998327	0.361943	-0.698565	1.199017	0.331190	-0.457898	1.191767	0.354635	-0.667577	1.383735	0.332107	-0.494181	1.356598	0.350011	-0.404574	1.596842	0.347394	-0.459502	1.576050	0.423798	-0.459193	1.563160	0.260294	-0.591947	1.398308	0.522354	-0.675707	1.086982	0.614657	-0.684975	1.059394	0.520606	-0.553821	1.388428	0.165093	-0.571765	1.071870	0.044946	-0.613273	1.045261	0.137902	-0.607126	0.834139	0.643650	-0.529019	0.843737	0.586485	-0.459413	0.834044	0.043454	-0.428840	0.843441	0.119603	-0.543455	0.748081	0.651417	-0.402772	0.767246	0.070001	0.000000	0.000000	0.000000	
9	0.0450	-0.734491	0.184403	0.373155	-0.569527	0.064282	0.418084	-0.628060	0.180653	0.363338	-0.692502	0.179229	0.451305	-0.621030	0.083004	0.481728	-0.673774	0.048499	0.291752	-0.463033	0.050968	0.306059	-0.602839	0.097234	0.338305	-0.610355	0.073473	0.237298	-0.496170	0.038143	0.230688	-0.420996	0.379684	0.473606	-0.494717	0.367261	0.267780	-0.377312	0.482778	0.386671	-0.428036	0.485949	0.524917	-0.572517	0.826944	0.537008	-0.380087	0.698348	0.497309	-0.554788	0.455867	0.337710	-0.524377	0.448789	0.196816	-0.553782	0.851422	0.159061	-0.475098	0.947640	0.222092	-0.484286	0.936607	0.471949	-0.684380	0.937849	0.378755	-0.678566	0.943438	0.293512	-0.412609	0.998575	0.360944	-0.692535	1.199656	0.331167	-0.451620	1.191525	0.354440	-0.661059	1.383870	0.331922	-0.487772	1.356616	0.349772	-0.398515	1.597182	0.347661	-0.453236	1.576050	0.423845	-0.452067	1.563320	0.259909	-0.585694	1.398160	0.522269	-0.670919	1.087029	0.614015	-0.679860	1.059944	0.520115	-0.547202	1.388766	0.165048	-0.561786	1.072466	0.043875	-0.599661	1.048141	0.136740	-0.605175	0.833453	0.643677	-0.524075	0.842835	0.585519	-0.445128	0.836832	0.043435	-0.414716	0.846574	0.118912	-0.543180	0.746667	0.650806	-0.387061	0.771223	0.069745	0.000000	0.000000	0.000000	
